# xmcd CD database file
#
# Track frame offsets:
#	150
#	13817
#	26941
#	38700
#	53723
#	68568
#	82416
#	95972
#	109563
#	119113
#	134334
#	146650
#	159858
#	170349
#	183424
#	198324
#	211866
#	227506
#
# Disc length: 3206 seconds
#
# Revision: 0
# Processed by: cddbd v1.5.1PL0 Copyright (c) Steve Scherf et al.
# Submitted via: CDex 1.51
#
DISCID=000c8412
DTITLE=Various Artist - Jazz after hours - Smoothies Vol B.
DYEAR=1900
DGENRE=Jazz
TTITLE0=Linger in my arms
TTITLE1=I got it bad
TTITLE2=Everyone is saying hello again
TTITLE3=Don't explain
TTITLE4=It could happen to you
TTITLE5=I'll be seeing you
TTITLE6=The more I see
TTITLE7=You go to my heart
TTITLE8=Who's sorry now
TTITLE9=Skylark
TTITLE10=Haunted Heart
TTITLE11=Our love Affair
TTITLE12=How high the moon
TTITLE13=It only happens once
TTITLE14=I don't know enough
TTITLE15=I can make you love me
TTITLE16=Blue Room
TTITLE17=I'm thru with love
EXTD=
EXTT0=
EXTT1=
EXTT2=
EXTT3=
EXTT4=
EXTT5=
EXTT6=
EXTT7=
EXTT8=
EXTT9=
EXTT10=
EXTT11=
EXTT12=
EXTT13=
EXTT14=
EXTT15=
EXTT16=
EXTT17=
PLAYORDER=
